<svg width="1520.000244" height="1520.000000" viewBox="0 0 1520 1520" fill="none" xmlns="http://www.w3.org/2000/svg" xmlns:xlink="http://www.w3.org/1999/xlink">
	<desc>
			Created with Pixso.
	</desc>
	<defs>
		<filter id="filter_1_662_dd" x="0.000000" y="0.000000" width="1520.000244" height="1520.000000" filterUnits="userSpaceOnUse" color-interpolation-filters="sRGB">
			<feFlood flood-opacity="0" result="BackgroundImageFix"/>
			<feColorMatrix in="SourceAlpha" type="matrix" values="0 0 0 0 0 0 0 0 0 0 0 0 0 0 0 0 0 0 127 0" result="hardAlpha"/>
			<feOffset dx="0" dy="4"/>
			<feGaussianBlur stdDeviation="40"/>
			<feComposite in2="hardAlpha" operator="out" k2="-1" k3="1"/>
			<feColorMatrix type="matrix" values="0 0 0 0 1 0 0 0 0 1 0 0 0 0 1 0 0 0 1 0"/>
			<feBlend mode="normal" in2="BackgroundImageFix" result="effect_dropShadow_1"/>
			<feBlend mode="normal" in="SourceGraphic" in2="effect_dropShadow_1" result="shape"/>
		</filter>
	</defs>
	<g filter="url(#filter_1_662_dd)">
		<path id="Logo" d="M727.49 166.3L727.49 147.26C727.49 129.99 742.04 116 760 116C777.95 116 792.5 129.99 792.5 147.26L792.5 166.3C792.5 183.57 777.95 197.57 760 197.57C742.04 197.57 727.49 183.57 727.49 166.3ZM413.14 264.07C419.17 274.1 430.09 279.72 441.33 279.72C446.84 279.72 452.43 278.36 457.54 275.53C473.09 266.89 478.43 247.77 469.46 232.81L459.57 216.33C450.6 201.37 430.72 196.24 415.17 204.87C399.62 213.5 394.29 232.62 403.26 247.58L413.14 264.07ZM1062.43 275.53C1067.56 278.37 1073.14 279.72 1078.66 279.72C1089.89 279.72 1100.81 274.11 1106.84 264.08L1116.73 247.59C1125.71 232.64 1120.38 213.51 1104.82 204.88C1089.29 196.25 1069.41 201.37 1060.43 216.33L1050.54 232.81C1041.56 247.76 1046.89 266.89 1062.43 275.53ZM1312.02 504.15C1317.54 504.15 1323.13 502.8 1328.25 499.95L1345.38 490.44C1360.93 481.8 1366.25 462.67 1357.27 447.72C1348.3 432.77 1328.42 427.64 1312.87 436.28L1295.74 445.8C1280.18 454.43 1274.87 473.56 1283.84 488.52C1289.86 498.54 1300.79 504.15 1312.02 504.15ZM1396.52 1058.72C1354.31 1139.18 1236.36 1193.26 1103.01 1193.26C1011.6 1193.26 925.96 1167.9 867.75 1124.47C834.4 1146.46 799.2 1160.61 764.32 1164.93C762.73 1165.13 761.13 1165.21 759.6 1165.18C758.3 1165.18 756.99 1165.1 755.68 1164.93C720.79 1160.61 685.59 1146.44 652.24 1124.47C594.03 1167.9 508.41 1193.26 416.99 1193.26C283.64 1193.26 165.69 1139.18 123.48 1058.72C118.84 1049.86 118.83 1039.41 123.48 1030.55C154.62 971.15 225.84 926.12 315.97 906.6C269.2 842.7 252.12 767.21 273.3 702.62C275.9 694.72 281.65 688.13 289.29 684.3C342.7 657.53 410.43 655.59 476.37 677.82C486.16 646.63 501.56 619.48 522.43 598.32C529.57 591.09 539.89 587.56 550.17 588.84C567.22 590.95 584.34 595.42 601.3 602C635.69 532.07 686.38 479.93 746.43 453.42C755.03 449.62 764.94 449.62 773.54 453.42C833.57 479.92 884.25 532.02 918.65 601.9C935.6 595.38 952.74 590.96 969.82 588.84C980.12 587.56 990.42 591.09 997.56 598.32C1018.44 619.48 1033.82 646.62 1043.63 677.81C1109.56 655.59 1177.3 657.53 1230.69 684.29C1238.34 688.12 1244.09 694.71 1246.68 702.61C1267.87 767.2 1250.8 842.7 1204.03 906.59C1294.15 926.11 1365.37 971.14 1396.52 1030.54C1401.16 1039.41 1401.16 1049.86 1396.52 1058.72ZM1002.94 970.01C1038.24 961.58 1073.3 944.2 1104.18 919.27C1167.28 868.35 1200.31 794.21 1188.09 734.29C1149.9 720.03 1102.28 722.24 1055.35 740.36C1059.86 798.74 1048.91 864.78 1021.88 929.78C1016.13 943.6 1009.79 957.03 1002.94 970.01ZM658.29 632.46C695.74 658.11 730.67 693.6 759.93 736.06C789.33 693.15 824.23 657.71 861.58 632.21C836.55 580.18 800.71 539.48 759.99 516.99C719.21 539.52 683.33 580.31 658.29 632.46ZM415.8 919.27C446.68 944.2 481.76 961.58 517.06 970.02C510.2 957.03 503.87 943.6 498.12 929.77C471.09 864.78 460.14 798.74 464.65 740.36C417.72 722.23 370.09 720.02 331.9 734.29C319.67 794.21 352.71 868.35 415.8 919.27ZM600.89 1083C586.89 1069.46 573.52 1054.5 560.99 1038.34C496.57 1037.28 429.38 1011.88 374 967.18C371.68 965.3 369.39 963.4 367.12 961.47C287.95 970.91 221.6 1002.3 190.38 1044.63C228.33 1095.98 318.07 1130.72 416.98 1130.72C487.2 1130.72 554.37 1112.91 600.89 1083ZM747.36 847.23C714.97 769.35 660.81 705.13 603.88 672.71C602.29 671.99 600.79 671.15 599.37 670.22C585.9 662.96 572.31 657.51 558.83 654.09C545.36 672.63 536.34 696.34 531.85 723.35C531.73 725 531.48 726.65 531.08 728.28C523.58 780.45 532.53 844.18 558.47 906.55C584.65 969.48 625.04 1023.51 669.63 1059.03C670.67 1059.75 671.67 1060.54 672.64 1061.4C696.8 1080.12 722.11 1093.38 747 1099.69C786.95 1044.75 787.75 944.34 747.36 847.23ZM961.51 906.54C987.45 844.2 996.4 780.49 988.91 728.33C988.5 726.65 988.24 724.96 988.13 723.28C983.64 696.29 974.62 672.6 961.15 654.08C947.87 657.44 934.47 662.76 921.15 669.85C919.39 671.07 917.48 672.13 915.43 673.01C871.21 698.29 828.54 742.81 796.42 798.86C800.4 807.08 804.17 815.47 807.72 824C844.58 912.62 851.53 1003.19 830.19 1073.64C835.99 1069.85 841.75 1065.73 847.44 1061.31C848.34 1060.52 849.28 1059.79 850.25 1059.11C894.88 1023.58 935.31 969.53 961.51 906.54ZM1329.61 1044.63C1298.39 1002.3 1232.03 970.91 1152.86 961.47C1150.6 963.4 1148.3 965.3 1145.98 967.18C1090.61 1011.88 1023.41 1037.27 959 1038.34C946.47 1054.5 933.1 1069.44 919.1 1083C965.63 1112.9 1032.8 1130.72 1103.01 1130.72C1201.92 1130.72 1291.66 1095.98 1329.61 1044.63ZM1075.11 1275.9C1061.56 1264.56 1041.04 1265.92 1029.25 1278.93C1008.75 1301.57 911.66 1333.46 760 1333.46C608.33 1333.46 511.24 1301.57 490.75 1278.93C478.95 1265.92 458.42 1264.56 444.88 1275.9C431.35 1287.24 429.93 1307 441.72 1320.02C492.51 1376.1 644.91 1396 760 1396C875.08 1396 1027.49 1376.1 1078.28 1320.02C1090.06 1306.99 1088.65 1287.24 1075.11 1275.9ZM332.69 614.27C349.95 618.95 367.92 609.27 372.79 592.65C421.38 426.74 580.6 310.87 760 310.87C939.39 310.87 1098.62 426.74 1147.21 592.65C1151.25 606.44 1164.29 615.45 1178.48 615.45C1181.4 615.45 1184.37 615.07 1187.31 614.27C1204.59 609.58 1214.65 592.31 1209.78 575.69C1153.32 382.94 968.37 248.33 760 248.33C551.62 248.33 366.66 382.95 310.22 575.69C305.35 592.31 315.41 609.58 332.69 614.27ZM760 1290.91C787.92 1290.91 881.63 1288.04 914.98 1251.18C926.77 1238.16 925.35 1218.41 911.81 1207.06C898.34 1195.79 877.95 1197.07 866.14 1209.92C858.72 1216.4 820.25 1228.37 760 1228.37C699.73 1228.37 661.25 1216.4 653.84 1209.91C642.03 1197.07 621.64 1195.79 608.17 1207.06C594.63 1218.41 593.21 1238.17 605.01 1251.18C638.37 1288.04 732.07 1290.91 760 1290.91ZM174.61 490.43L191.73 499.95C196.86 502.79 202.45 504.15 207.97 504.15C219.2 504.15 230.12 498.55 236.14 488.52C245.13 473.56 239.81 454.44 224.26 445.8L207.14 436.28C191.6 427.65 171.71 432.75 162.73 447.71C153.75 462.66 159.07 481.79 174.61 490.43Z" fill="#FFFFFF" fill-opacity="1.000000" fill-rule="nonzero"/>
	</g>
</svg>
